999
Generated by Autodesk CAM - http://cam.autodesk.com
0
SECTION
2
HEADER
9
$ACADVER
1
AC1006
9
$ANGBASE
50
0
9
$ANGDIR
70
0
0
ENDSEC
0
SECTION
2
BLOCKS
0
ENDSEC
9
$EXTMIN
10
-65.005
20
-30.025
30
0
9
$EXTMAX
10
65.005
20
30.005
30
15
0
SECTION
2
ENTITIES
0
LINE
8
1
62
1
10
-50.005
20
-30
30
0
11
-50.005
21
-27.005
31
0
0
LINE
8
1
62
1
10
-50.005
20
-27.005
30
0
11
-59.995
21
-27.005
31
0
0
LINE
8
1
62
1
10
-59.995
20
-27.005
30
0
11
-59.995
21
-30
31
0
0
LINE
8
1
62
1
10
-59.995
20
-30
30
0
11
-59.996
21
-30.004
31
0
0
LINE
8
1
62
1
10
-59.996
20
-30.004
30
0
11
-60
21
-30.005
31
0
0
LINE
8
1
62
1
10
-60
20
-30.005
30
0
11
-65
21
-30.005
31
0
0
LINE
8
1
62
1
10
-65
20
-30.005
30
0
11
-65.004
21
-30.004
31
0
0
LINE
8
1
62
1
10
-65.004
20
-30.004
30
0
11
-65.005
21
-30
31
0
0
LINE
8
1
62
1
10
-65.005
20
-30
30
0
11
-65.005
21
-19.981
31
0
0
LINE
8
1
62
1
10
-65.005
20
-19.981
30
0
11
-65.004
21
-19.977
31
0
0
LINE
8
1
62
1
10
-65.004
20
-19.977
30
0
11
-65
21
-19.976
31
0
0
LINE
8
1
62
1
10
-65
20
-19.976
30
0
11
-62.005
21
-19.976
31
0
0
LINE
8
1
62
1
10
-62.005
20
-19.976
30
0
11
-62.005
21
-10.005
31
0
0
LINE
8
1
62
1
10
-62.005
20
-10.005
30
0
11
-65
21
-10.005
31
0
0
LINE
8
1
62
1
10
-65
20
-10.005
30
0
11
-65.004
21
-10.004
31
0
0
LINE
8
1
62
1
10
-65.004
20
-10.004
30
0
11
-65.005
21
-10
31
0
0
LINE
8
1
62
1
10
-65.005
20
-10
30
0
11
-65.005
21
10
31
0
0
LINE
8
1
62
1
10
-65.005
20
10
30
0
11
-65.004
21
10.004
31
0
0
LINE
8
1
62
1
10
-65.004
20
10.004
30
0
11
-65
21
10.005
31
0
0
LINE
8
1
62
1
10
-65
20
10.005
30
0
11
-62.005
21
10.005
31
0
0
LINE
8
1
62
1
10
-62.005
20
10.005
30
0
11
-62.005
21
19.976
31
0
0
LINE
8
1
62
1
10
-62.005
20
19.976
30
0
11
-65
21
19.976
31
0
0
LINE
8
1
62
1
10
-65
20
19.976
30
0
11
-65.004
21
19.977
31
0
0
LINE
8
1
62
1
10
-65.004
20
19.977
30
0
11
-65.005
21
19.981
31
0
0
LINE
8
1
62
1
10
-65.005
20
19.981
30
0
11
-65.005
21
30
31
0
0
LINE
8
1
62
1
10
-65.005
20
30
30
0
11
-65.004
21
30.004
31
0
0
LINE
8
1
62
1
10
-65.004
20
30.004
30
0
11
-65
21
30.005
31
0
0
LINE
8
1
62
1
10
-65
20
30.005
30
0
11
-60
21
30.005
31
0
0
LINE
8
1
62
1
10
-60
20
30.005
30
0
11
-59.996
21
30.004
31
0
0
LINE
8
1
62
1
10
-59.996
20
30.004
30
0
11
-59.995
21
30
31
0
0
LINE
8
1
62
1
10
-59.995
20
30
30
0
11
-59.995
21
27.005
31
0
0
LINE
8
1
62
1
10
-59.995
20
27.005
30
0
11
-50.005
21
27.005
31
0
0
LINE
8
1
62
1
10
-50.005
20
27.005
30
0
11
-50.005
21
30
31
0
0
LINE
8
1
62
1
10
-50.005
20
30
30
0
11
-50.004
21
30.004
31
0
0
LINE
8
1
62
1
10
-50.004
20
30.004
30
0
11
-50
21
30.005
31
0
0
LINE
8
1
62
1
10
-50
20
30.005
30
0
11
-35
21
30.005
31
0
0
LINE
8
1
62
1
10
-35
20
30.005
30
0
11
-34.996
21
30.004
31
0
0
LINE
8
1
62
1
10
-34.996
20
30.004
30
0
11
-34.995
21
30
31
0
0
LINE
8
1
62
1
10
-34.995
20
30
30
0
11
-34.995
21
27.005
31
0
0
LINE
8
1
62
1
10
-34.995
20
27.005
30
0
11
-25.005
21
27.005
31
0
0
LINE
8
1
62
1
10
-25.005
20
27.005
30
0
11
-25.005
21
30
31
0
0
LINE
8
1
62
1
10
-25.005
20
30
30
0
11
-25.004
21
30.004
31
0
0
LINE
8
1
62
1
10
-25.004
20
30.004
30
0
11
-25
21
30.005
31
0
0
LINE
8
1
62
1
10
-25
20
30.005
30
0
11
-15
21
30.005
31
0
0
LINE
8
1
62
1
10
-15
20
30.005
30
0
11
-14.996
21
30.004
31
0
0
LINE
8
1
62
1
10
-14.996
20
30.004
30
0
11
-14.995
21
30
31
0
0
LINE
8
1
62
1
10
-14.995
20
30
30
0
11
-14.995
21
27.005
31
0
0
LINE
8
1
62
1
10
-14.995
20
27.005
30
0
11
-5.005
21
27.005
31
0
0
LINE
8
1
62
1
10
-5.005
20
27.005
30
0
11
-5.005
21
30
31
0
0
LINE
8
1
62
1
10
-5.005
20
30
30
0
11
-5.004
21
30.004
31
0
0
LINE
8
1
62
1
10
-5.004
20
30.004
30
0
11
-5
21
30.005
31
0
0
LINE
8
1
62
1
10
-5
20
30.005
30
0
11
5
21
30.005
31
0
0
LINE
8
1
62
1
10
5
20
30.005
30
0
11
5.004
21
30.004
31
0
0
LINE
8
1
62
1
10
5.004
20
30.004
30
0
11
5.005
21
30
31
0
0
LINE
8
1
62
1
10
5.005
20
30
30
0
11
5.005
21
27.005
31
0
0
LINE
8
1
62
1
10
5.005
20
27.005
30
0
11
14.995
21
27.005
31
0
0
LINE
8
1
62
1
10
14.995
20
27.005
30
0
11
14.995
21
30
31
0
0
LINE
8
1
62
1
10
14.995
20
30
30
0
11
14.996
21
30.004
31
0
0
LINE
8
1
62
1
10
14.996
20
30.004
30
0
11
15
21
30.005
31
0
0
LINE
8
1
62
1
10
15
20
30.005
30
0
11
25
21
30.005
31
0
0
LINE
8
1
62
1
10
25
20
30.005
30
0
11
25.004
21
30.004
31
0
0
LINE
8
1
62
1
10
25.004
20
30.004
30
0
11
25.005
21
30
31
0
0
LINE
8
1
62
1
10
25.005
20
30
30
0
11
25.005
21
27.005
31
0
0
LINE
8
1
62
1
10
25.005
20
27.005
30
0
11
34.995
21
27.005
31
0
0
LINE
8
1
62
1
10
34.995
20
27.005
30
0
11
34.995
21
30
31
0
0
LINE
8
1
62
1
10
34.995
20
30
30
0
11
34.996
21
30.004
31
0
0
LINE
8
1
62
1
10
34.996
20
30.004
30
0
11
35
21
30.005
31
0
0
LINE
8
1
62
1
10
35
20
30.005
30
0
11
50
21
30.005
31
0
0
LINE
8
1
62
1
10
50
20
30.005
30
0
11
50.004
21
30.004
31
0
0
LINE
8
1
62
1
10
50.004
20
30.004
30
0
11
50.005
21
30
31
0
0
LINE
8
1
62
1
10
50.005
20
30
30
0
11
50.005
21
27.005
31
0
0
LINE
8
1
62
1
10
50.005
20
27.005
30
0
11
59.995
21
27.005
31
0
0
LINE
8
1
62
1
10
59.995
20
27.005
30
0
11
59.995
21
30
31
0
0
LINE
8
1
62
1
10
59.995
20
30
30
0
11
59.996
21
30.004
31
0
0
LINE
8
1
62
1
10
59.996
20
30.004
30
0
11
60
21
30.005
31
0
0
LINE
8
1
62
1
10
60
20
30.005
30
0
11
65
21
30.005
31
0
0
LINE
8
1
62
1
10
65
20
30.005
30
0
11
65.004
21
30.004
31
0
0
LINE
8
1
62
1
10
65.004
20
30.004
30
0
11
65.005
21
30
31
0
0
LINE
8
1
62
1
10
65.005
20
30
30
0
11
65.005
21
19.981
31
0
0
LINE
8
1
62
1
10
65.005
20
19.981
30
0
11
65.004
21
19.977
31
0
0
LINE
8
1
62
1
10
65.004
20
19.977
30
0
11
65
21
19.976
31
0
0
LINE
8
1
62
1
10
65
20
19.976
30
0
11
62.005
21
19.976
31
0
0
LINE
8
1
62
1
10
62.005
20
19.976
30
0
11
62.005
21
10.005
31
0
0
LINE
8
1
62
1
10
62.005
20
10.005
30
0
11
65
21
10.005
31
0
0
LINE
8
1
62
1
10
65
20
10.005
30
0
11
65.004
21
10.004
31
0
0
LINE
8
1
62
1
10
65.004
20
10.004
30
0
11
65.005
21
10
31
0
0
LINE
8
1
62
1
10
65.005
20
10
30
0
11
65.005
21
-10
31
0
0
LINE
8
1
62
1
10
65.005
20
-10
30
0
11
65.004
21
-10.004
31
0
0
LINE
8
1
62
1
10
65.004
20
-10.004
30
0
11
65
21
-10.005
31
0
0
LINE
8
1
62
1
10
65
20
-10.005
30
0
11
62.005
21
-10.005
31
0
0
LINE
8
1
62
1
10
62.005
20
-10.005
30
0
11
62.005
21
-19.976
31
0
0
LINE
8
1
62
1
10
62.005
20
-19.976
30
0
11
65
21
-19.976
31
0
0
LINE
8
1
62
1
10
65
20
-19.976
30
0
11
65.004
21
-19.977
31
0
0
LINE
8
1
62
1
10
65.004
20
-19.977
30
0
11
65.005
21
-19.981
31
0
0
LINE
8
1
62
1
10
65.005
20
-19.981
30
0
11
65.005
21
-30
31
0
0
LINE
8
1
62
1
10
65.005
20
-30
30
0
11
65.004
21
-30.004
31
0
0
LINE
8
1
62
1
10
65.004
20
-30.004
30
0
11
65
21
-30.005
31
0
0
LINE
8
1
62
1
10
65
20
-30.005
30
0
11
60
21
-30.005
31
0
0
LINE
8
1
62
1
10
60
20
-30.005
30
0
11
59.996
21
-30.004
31
0
0
LINE
8
1
62
1
10
59.996
20
-30.004
30
0
11
59.995
21
-30
31
0
0
LINE
8
1
62
1
10
59.995
20
-30
30
0
11
59.995
21
-27.005
31
0
0
LINE
8
1
62
1
10
59.995
20
-27.005
30
0
11
50.005
21
-27.005
31
0
0
LINE
8
1
62
1
10
50.005
20
-27.005
30
0
11
50.005
21
-30
31
0
0
LINE
8
1
62
1
10
50.005
20
-30
30
0
11
50.004
21
-30.004
31
0
0
LINE
8
1
62
1
10
50.004
20
-30.004
30
0
11
50
21
-30.005
31
0
0
LINE
8
1
62
1
10
50
20
-30.005
30
0
11
35
21
-30.005
31
0
0
LINE
8
1
62
1
10
35
20
-30.005
30
0
11
34.996
21
-30.004
31
0
0
LINE
8
1
62
1
10
34.996
20
-30.004
30
0
11
34.995
21
-30
31
0
0
LINE
8
1
62
1
10
34.995
20
-30
30
0
11
34.995
21
-27.005
31
0
0
LINE
8
1
62
1
10
34.995
20
-27.005
30
0
11
25.005
21
-27.005
31
0
0
LINE
8
1
62
1
10
25.005
20
-27.005
30
0
11
25.005
21
-30
31
0
0
LINE
8
1
62
1
10
25.005
20
-30
30
0
11
25.004
21
-30.004
31
0
0
LINE
8
1
62
1
10
25.004
20
-30.004
30
0
11
25
21
-30.005
31
0
0
LINE
8
1
62
1
10
25
20
-30.005
30
0
11
15
21
-30.005
31
0
0
LINE
8
1
62
1
10
15
20
-30.005
30
0
11
14.996
21
-30.004
31
0
0
LINE
8
1
62
1
10
14.996
20
-30.004
30
0
11
14.995
21
-30
31
0
0
LINE
8
1
62
1
10
14.995
20
-30
30
0
11
14.995
21
-27.005
31
0
0
LINE
8
1
62
1
10
14.995
20
-27.005
30
0
11
5.005
21
-27.005
31
0
0
LINE
8
1
62
1
10
5.005
20
-27.005
30
0
11
5.005
21
-30
31
0
0
LINE
8
1
62
1
10
5.005
20
-30
30
0
11
5.004
21
-30.004
31
0
0
LINE
8
1
62
1
10
5.004
20
-30.004
30
0
11
5
21
-30.005
31
0
0
LINE
8
1
62
1
10
5
20
-30.005
30
0
11
-5
21
-30.005
31
0
0
LINE
8
1
62
1
10
-5
20
-30.005
30
0
11
-5.004
21
-30.004
31
0
0
LINE
8
1
62
1
10
-5.004
20
-30.004
30
0
11
-5.005
21
-30
31
0
0
LINE
8
1
62
1
10
-5.005
20
-30
30
0
11
-5.005
21
-27.005
31
0
0
LINE
8
1
62
1
10
-5.005
20
-27.005
30
0
11
-14.995
21
-27.005
31
0
0
LINE
8
1
62
1
10
-14.995
20
-27.005
30
0
11
-14.995
21
-30
31
0
0
LINE
8
1
62
1
10
-14.995
20
-30
30
0
11
-14.996
21
-30.004
31
0
0
LINE
8
1
62
1
10
-14.996
20
-30.004
30
0
11
-15
21
-30.005
31
0
0
LINE
8
1
62
1
10
-15
20
-30.005
30
0
11
-25
21
-30.005
31
0
0
LINE
8
1
62
1
10
-25
20
-30.005
30
0
11
-25.004
21
-30.004
31
0
0
LINE
8
1
62
1
10
-25.004
20
-30.004
30
0
11
-25.005
21
-30
31
0
0
LINE
8
1
62
1
10
-25.005
20
-30
30
0
11
-25.005
21
-27.005
31
0
0
LINE
8
1
62
1
10
-25.005
20
-27.005
30
0
11
-34.995
21
-27.005
31
0
0
LINE
8
1
62
1
10
-34.995
20
-27.005
30
0
11
-34.995
21
-30
31
0
0
LINE
8
1
62
1
10
-34.995
20
-30
30
0
11
-34.996
21
-30.004
31
0
0
LINE
8
1
62
1
10
-34.996
20
-30.004
30
0
11
-35
21
-30.005
31
0
0
LINE
8
1
62
1
10
-35
20
-30.005
30
0
11
-50
21
-30.005
31
0
0
LINE
8
1
62
1
10
-50
20
-30.005
30
0
11
-50.004
21
-30.004
31
0
0
LINE
8
1
62
1
10
-50.004
20
-30.004
30
0
11
-50.005
21
-30
31
0
0
ENDSEC
0
EOF
