999
Generated by Autodesk CAM - http://cam.autodesk.com
0
SECTION
2
HEADER
9
$ACADVER
1
AC1006
9
$ANGBASE
50
0
9
$ANGDIR
70
0
0
ENDSEC
0
SECTION
2
BLOCKS
0
ENDSEC
9
$EXTMIN
10
-130.004
20
-50.005
30
0
9
$EXTMAX
10
130.004
20
50.048
30
15
0
SECTION
2
ENTITIES
0
LINE
8
1
62
1
10
-107.005
20
39.956
30
0
11
-107.005
21
39.995
31
0
0
LINE
8
1
62
1
10
-107.005
20
39.995
30
0
11
-109.995
21
39.995
31
0
0
LINE
8
1
62
1
10
-109.995
20
39.995
30
0
11
-109.995
21
30.005
31
0
0
LINE
8
1
62
1
10
-109.995
20
30.005
30
0
11
-107.005
21
30.005
31
0
0
LINE
8
1
62
1
10
-107.005
20
30.005
30
0
11
-107.005
21
39.956
31
0
0
LINE
8
1
62
1
10
107.044
20
39.995
30
0
11
107.005
21
39.995
31
0
0
LINE
8
1
62
1
10
107.005
20
39.995
30
0
11
107.005
21
30.005
31
0
0
LINE
8
1
62
1
10
107.005
20
30.005
30
0
11
109.995
21
30.005
31
0
0
LINE
8
1
62
1
10
109.995
20
30.005
30
0
11
109.995
21
39.995
31
0
0
LINE
8
1
62
1
10
109.995
20
39.995
30
0
11
107.044
21
39.995
31
0
0
LINE
8
1
62
1
10
107.005
20
50.005
30
0
11
130
21
50.005
31
0
0
LINE
8
1
62
1
10
130
20
50.005
30
0
11
130.004
21
50.003
31
0
0
LINE
8
1
62
1
10
130.004
20
50.003
30
0
11
130.004
21
49.998
31
0
0
LINE
8
1
62
1
10
130.004
20
49.998
30
0
11
110.005
21
9.999
31
0
0
LINE
8
1
62
1
10
110.005
20
9.999
30
0
11
110.005
21
0
31
0
0
LINE
8
1
62
1
10
110.005
20
0
30
0
11
110.004
21
-0.004
31
0
0
LINE
8
1
62
1
10
110.004
20
-0.004
30
0
11
110
21
-0.005
31
0
0
LINE
8
1
62
1
10
110
20
-0.005
30
0
11
107.005
21
-0.005
31
0
0
LINE
8
1
62
1
10
107.005
20
-0.005
30
0
11
107.005
21
-19.995
31
0
0
LINE
8
1
62
1
10
107.005
20
-19.995
30
0
11
110
21
-19.995
31
0
0
LINE
8
1
62
1
10
110
20
-19.995
30
0
11
110.004
21
-19.996
31
0
0
LINE
8
1
62
1
10
110.004
20
-19.996
30
0
11
110.005
21
-20
31
0
0
LINE
8
1
62
1
10
110.005
20
-20
30
0
11
110.005
21
-50
31
0
0
LINE
8
1
62
1
10
110.005
20
-50
30
0
11
110.004
21
-50.004
31
0
0
LINE
8
1
62
1
10
110.004
20
-50.004
30
0
11
110
21
-50.005
31
0
0
LINE
8
1
62
1
10
110
20
-50.005
30
0
11
70
21
-50.005
31
0
0
LINE
8
1
62
1
10
70
20
-50.005
30
0
11
69.996
21
-50.004
31
0
0
LINE
8
1
62
1
10
69.996
20
-50.004
30
0
11
69.995
21
-50
31
0
0
LINE
8
1
62
1
10
69.995
20
-50
30
0
11
69.995
21
-47.005
31
0
0
LINE
8
1
62
1
10
69.995
20
-47.005
30
0
11
50.005
21
-47.005
31
0
0
LINE
8
1
62
1
10
50.005
20
-47.005
30
0
11
50.005
21
-50
31
0
0
LINE
8
1
62
1
10
50.005
20
-50
30
0
11
50.004
21
-50.004
31
0
0
LINE
8
1
62
1
10
50.004
20
-50.004
30
0
11
50
21
-50.005
31
0
0
LINE
8
1
62
1
10
50
20
-50.005
30
0
11
10
21
-50.005
31
0
0
LINE
8
1
62
1
10
10
20
-50.005
30
0
11
9.996
21
-50.004
31
0
0
LINE
8
1
62
1
10
9.996
20
-50.004
30
0
11
9.995
21
-50
31
0
0
LINE
8
1
62
1
10
9.995
20
-50
30
0
11
9.995
21
-47.005
31
0
0
LINE
8
1
62
1
10
9.995
20
-47.005
30
0
11
-9.995
21
-47.005
31
0
0
LINE
8
1
62
1
10
-9.995
20
-47.005
30
0
11
-9.995
21
-50
31
0
0
LINE
8
1
62
1
10
-9.995
20
-50
30
0
11
-9.996
21
-50.004
31
0
0
LINE
8
1
62
1
10
-9.996
20
-50.004
30
0
11
-10
21
-50.005
31
0
0
LINE
8
1
62
1
10
-10
20
-50.005
30
0
11
-50
21
-50.005
31
0
0
LINE
8
1
62
1
10
-50
20
-50.005
30
0
11
-50.004
21
-50.004
31
0
0
LINE
8
1
62
1
10
-50.004
20
-50.004
30
0
11
-50.005
21
-50
31
0
0
LINE
8
1
62
1
10
-50.005
20
-50
30
0
11
-50.005
21
-47.005
31
0
0
LINE
8
1
62
1
10
-50.005
20
-47.005
30
0
11
-69.995
21
-47.005
31
0
0
LINE
8
1
62
1
10
-69.995
20
-47.005
30
0
11
-69.995
21
-50
31
0
0
LINE
8
1
62
1
10
-69.995
20
-50
30
0
11
-69.996
21
-50.004
31
0
0
LINE
8
1
62
1
10
-69.996
20
-50.004
30
0
11
-70
21
-50.005
31
0
0
LINE
8
1
62
1
10
-70
20
-50.005
30
0
11
-110
21
-50.005
31
0
0
LINE
8
1
62
1
10
-110
20
-50.005
30
0
11
-110.004
21
-50.004
31
0
0
LINE
8
1
62
1
10
-110.004
20
-50.004
30
0
11
-110.005
21
-50
31
0
0
LINE
8
1
62
1
10
-110.005
20
-50
30
0
11
-110.005
21
-20
31
0
0
LINE
8
1
62
1
10
-110.005
20
-20
30
0
11
-110.004
21
-19.996
31
0
0
LINE
8
1
62
1
10
-110.004
20
-19.996
30
0
11
-110
21
-19.995
31
0
0
LINE
8
1
62
1
10
-110
20
-19.995
30
0
11
-107.005
21
-19.995
31
0
0
LINE
8
1
62
1
10
-107.005
20
-19.995
30
0
11
-107.005
21
-0.005
31
0
0
LINE
8
1
62
1
10
-107.005
20
-0.005
30
0
11
-110
21
-0.005
31
0
0
LINE
8
1
62
1
10
-110
20
-0.005
30
0
11
-110.004
21
-0.004
31
0
0
LINE
8
1
62
1
10
-110.004
20
-0.004
30
0
11
-110.005
21
0
31
0
0
LINE
8
1
62
1
10
-110.005
20
0
30
0
11
-110.005
21
9.999
31
0
0
LINE
8
1
62
1
10
-110.005
20
9.999
30
0
11
-130.004
21
49.998
31
0
0
LINE
8
1
62
1
10
-130.004
20
49.998
30
0
11
-130.004
21
50.003
31
0
0
LINE
8
1
62
1
10
-130.004
20
50.003
30
0
11
-130
21
50.005
31
0
0
LINE
8
1
62
1
10
-130
20
50.005
30
0
11
-65
21
50.005
31
0
0
LINE
8
1
62
1
10
-65
20
50.005
30
0
11
-64.996
21
50.004
31
0
0
LINE
8
1
62
1
10
-64.996
20
50.004
30
0
11
-64.995
21
50
31
0
0
LINE
8
1
62
1
10
-64.995
20
50
30
0
11
-64.995
21
40.005
31
0
0
LINE
8
1
62
1
10
-64.995
20
40.005
30
0
11
-62
21
40.005
31
0
0
LINE
8
1
62
1
10
-62
20
40.005
30
0
11
-61.996
21
40.004
31
0
0
LINE
8
1
62
1
10
-61.996
20
40.004
30
0
11
-61.995
21
40
31
0
0
LINE
8
1
62
1
10
-61.995
20
40
30
0
11
-61.995
21
20
31
0
0
LINE
8
1
62
1
10
-61.995
20
20
30
0
11
-61.996
21
19.996
31
0
0
LINE
8
1
62
1
10
-61.996
20
19.996
30
0
11
-62
21
19.995
31
0
0
LINE
8
1
62
1
10
-62
20
19.995
30
0
11
-64.995
21
19.995
31
0
0
LINE
8
1
62
1
10
-64.995
20
19.995
30
0
11
-64.995
21
0.005
31
0
0
LINE
8
1
62
1
10
-64.995
20
0.005
30
0
11
-62
21
0.005
31
0
0
LINE
8
1
62
1
10
-62
20
0.005
30
0
11
-61.996
21
0.004
31
0
0
LINE
8
1
62
1
10
-61.996
20
0.004
30
0
11
-61.995
21
0
31
0
0
LINE
8
1
62
1
10
-61.995
20
0
30
0
11
-61.995
21
-10
31
0
0
LINE
8
1
62
1
10
-61.995
20
-10
30
0
11
-61.996
21
-10.004
31
0
0
LINE
8
1
62
1
10
-61.996
20
-10.004
30
0
11
-62
21
-10.005
31
0
0
LINE
8
1
62
1
10
-62
20
-10.005
30
0
11
-64.995
21
-10.005
31
0
0
LINE
8
1
62
1
10
-64.995
20
-10.005
30
0
11
-64.995
21
-22.995
31
0
0
LINE
8
1
62
1
10
-64.995
20
-22.995
30
0
11
-60.005
21
-22.995
31
0
0
LINE
8
1
62
1
10
-60.005
20
-22.995
30
0
11
-60.005
21
-20
31
0
0
LINE
8
1
62
1
10
-60.005
20
-20
30
0
11
-60.004
21
-19.996
31
0
0
LINE
8
1
62
1
10
-60.004
20
-19.996
30
0
11
-60
21
-19.995
31
0
0
LINE
8
1
62
1
10
-60
20
-19.995
30
0
11
-50
21
-19.995
31
0
0
LINE
8
1
62
1
10
-50
20
-19.995
30
0
11
-49.996
21
-19.996
31
0
0
LINE
8
1
62
1
10
-49.996
20
-19.996
30
0
11
-49.995
21
-20
31
0
0
LINE
8
1
62
1
10
-49.995
20
-20
30
0
11
-49.995
21
-22.995
31
0
0
LINE
8
1
62
1
10
-49.995
20
-22.995
30
0
11
-35.005
21
-22.995
31
0
0
LINE
8
1
62
1
10
-35.005
20
-22.995
30
0
11
-35.005
21
-20
31
0
0
LINE
8
1
62
1
10
-35.005
20
-20
30
0
11
-35.004
21
-19.996
31
0
0
LINE
8
1
62
1
10
-35.004
20
-19.996
30
0
11
-35
21
-19.995
31
0
0
LINE
8
1
62
1
10
-35
20
-19.995
30
0
11
-25
21
-19.995
31
0
0
LINE
8
1
62
1
10
-25
20
-19.995
30
0
11
-24.996
21
-19.996
31
0
0
LINE
8
1
62
1
10
-24.996
20
-19.996
30
0
11
-24.995
21
-20
31
0
0
LINE
8
1
62
1
10
-24.995
20
-20
30
0
11
-24.995
21
-22.995
31
0
0
LINE
8
1
62
1
10
-24.995
20
-22.995
30
0
11
-15.005
21
-22.995
31
0
0
LINE
8
1
62
1
10
-15.005
20
-22.995
30
0
11
-15.005
21
-20
31
0
0
LINE
8
1
62
1
10
-15.005
20
-20
30
0
11
-15.004
21
-19.996
31
0
0
LINE
8
1
62
1
10
-15.004
20
-19.996
30
0
11
-15
21
-19.995
31
0
0
LINE
8
1
62
1
10
-15
20
-19.995
30
0
11
-5
21
-19.995
31
0
0
LINE
8
1
62
1
10
-5
20
-19.995
30
0
11
-4.996
21
-19.996
31
0
0
LINE
8
1
62
1
10
-4.996
20
-19.996
30
0
11
-4.995
21
-20
31
0
0
LINE
8
1
62
1
10
-4.995
20
-20
30
0
11
-4.995
21
-22.995
31
0
0
LINE
8
1
62
1
10
-4.995
20
-22.995
30
0
11
4.995
21
-22.995
31
0
0
LINE
8
1
62
1
10
4.995
20
-22.995
30
0
11
4.995
21
-20
31
0
0
LINE
8
1
62
1
10
4.995
20
-20
30
0
11
4.996
21
-19.996
31
0
0
LINE
8
1
62
1
10
4.996
20
-19.996
30
0
11
5
21
-19.995
31
0
0
LINE
8
1
62
1
10
5
20
-19.995
30
0
11
15
21
-19.995
31
0
0
LINE
8
1
62
1
10
15
20
-19.995
30
0
11
15.004
21
-19.996
31
0
0
LINE
8
1
62
1
10
15.004
20
-19.996
30
0
11
15.005
21
-20
31
0
0
LINE
8
1
62
1
10
15.005
20
-20
30
0
11
15.005
21
-22.995
31
0
0
LINE
8
1
62
1
10
15.005
20
-22.995
30
0
11
24.995
21
-22.995
31
0
0
LINE
8
1
62
1
10
24.995
20
-22.995
30
0
11
24.995
21
-20
31
0
0
LINE
8
1
62
1
10
24.995
20
-20
30
0
11
24.996
21
-19.996
31
0
0
LINE
8
1
62
1
10
24.996
20
-19.996
30
0
11
25
21
-19.995
31
0
0
LINE
8
1
62
1
10
25
20
-19.995
30
0
11
35
21
-19.995
31
0
0
LINE
8
1
62
1
10
35
20
-19.995
30
0
11
35.004
21
-19.996
31
0
0
LINE
8
1
62
1
10
35.004
20
-19.996
30
0
11
35.005
21
-20
31
0
0
LINE
8
1
62
1
10
35.005
20
-20
30
0
11
35.005
21
-22.995
31
0
0
LINE
8
1
62
1
10
35.005
20
-22.995
30
0
11
49.995
21
-22.995
31
0
0
LINE
8
1
62
1
10
49.995
20
-22.995
30
0
11
49.995
21
-20
31
0
0
LINE
8
1
62
1
10
49.995
20
-20
30
0
11
49.996
21
-19.996
31
0
0
LINE
8
1
62
1
10
49.996
20
-19.996
30
0
11
50
21
-19.995
31
0
0
LINE
8
1
62
1
10
50
20
-19.995
30
0
11
60
21
-19.995
31
0
0
LINE
8
1
62
1
10
60
20
-19.995
30
0
11
60.004
21
-19.996
31
0
0
LINE
8
1
62
1
10
60.004
20
-19.996
30
0
11
60.005
21
-20
31
0
0
LINE
8
1
62
1
10
60.005
20
-20
30
0
11
60.005
21
-22.995
31
0
0
LINE
8
1
62
1
10
60.005
20
-22.995
30
0
11
64.995
21
-22.995
31
0
0
LINE
8
1
62
1
10
64.995
20
-22.995
30
0
11
64.995
21
-10.005
31
0
0
LINE
8
1
62
1
10
64.995
20
-10.005
30
0
11
62
21
-10.005
31
0
0
LINE
8
1
62
1
10
62
20
-10.005
30
0
11
61.996
21
-10.004
31
0
0
LINE
8
1
62
1
10
61.996
20
-10.004
30
0
11
61.995
21
-10
31
0
0
LINE
8
1
62
1
10
61.995
20
-10
30
0
11
61.995
21
0
31
0
0
LINE
8
1
62
1
10
61.995
20
0
30
0
11
61.996
21
0.004
31
0
0
LINE
8
1
62
1
10
61.996
20
0.004
30
0
11
62
21
0.005
31
0
0
LINE
8
1
62
1
10
62
20
0.005
30
0
11
64.995
21
0.005
31
0
0
LINE
8
1
62
1
10
64.995
20
0.005
30
0
11
64.995
21
19.995
31
0
0
LINE
8
1
62
1
10
64.995
20
19.995
30
0
11
62
21
19.995
31
0
0
LINE
8
1
62
1
10
62
20
19.995
30
0
11
61.996
21
19.996
31
0
0
LINE
8
1
62
1
10
61.996
20
19.996
30
0
11
61.995
21
20
31
0
0
LINE
8
1
62
1
10
61.995
20
20
30
0
11
61.995
21
40
31
0
0
LINE
8
1
62
1
10
61.995
20
40
30
0
11
61.996
21
40.004
31
0
0
LINE
8
1
62
1
10
61.996
20
40.004
30
0
11
62
21
40.005
31
0
0
LINE
8
1
62
1
10
62
20
40.005
30
0
11
64.995
21
40.005
31
0
0
LINE
8
1
62
1
10
64.995
20
40.005
30
0
11
64.995
21
50
31
0
0
LINE
8
1
62
1
10
64.995
20
50
30
0
11
64.996
21
50.004
31
0
0
LINE
8
1
62
1
10
64.996
20
50.004
30
0
11
65
21
50.005
31
0
0
LINE
8
1
62
1
10
65
20
50.005
30
0
11
107.005
21
50.005
31
0
0
ENDSEC
0
EOF
