999
Generated by Autodesk CAM - http://cam.autodesk.com
0
SECTION
2
HEADER
9
$ACADVER
1
AC1006
9
$ANGBASE
50
0
9
$ANGDIR
70
0
0
ENDSEC
0
SECTION
2
BLOCKS
0
ENDSEC
9
$EXTMIN
10
-50.004
20
-36.505
30
0
9
$EXTMAX
10
50.004
20
36.548
30
19
0
SECTION
2
ENTITIES
0
LINE
8
1
62
1
10
27.044
20
26.495
30
0
11
27.005
21
26.495
31
0
0
LINE
8
1
62
1
10
27.005
20
26.495
30
0
11
27.005
21
6.505
31
0
0
LINE
8
1
62
1
10
27.005
20
6.505
30
0
11
29.995
21
6.505
31
0
0
LINE
8
1
62
1
10
29.995
20
6.505
30
0
11
29.995
21
26.495
31
0
0
LINE
8
1
62
1
10
29.995
20
26.495
30
0
11
27.044
21
26.495
31
0
0
LINE
8
1
62
1
10
-1.695
20
26.495
30
0
11
-1.695
21
26.005
31
0
0
LINE
8
1
62
1
10
-1.695
20
26.005
30
0
11
1.695
21
26.005
31
0
0
LINE
8
1
62
1
10
1.695
20
26.005
30
0
11
1.695
21
31.495
31
0
0
LINE
8
1
62
1
10
1.695
20
31.495
30
0
11
-1.695
21
31.495
31
0
0
LINE
8
1
62
1
10
-1.695
20
31.495
30
0
11
-1.695
21
26.495
31
0
0
LINE
8
1
62
1
10
-27.005
20
26.456
30
0
11
-27.005
21
26.495
31
0
0
LINE
8
1
62
1
10
-27.005
20
26.495
30
0
11
-29.995
21
26.495
31
0
0
LINE
8
1
62
1
10
-29.995
20
26.495
30
0
11
-29.995
21
6.505
31
0
0
LINE
8
1
62
1
10
-29.995
20
6.505
30
0
11
-27.005
21
6.505
31
0
0
LINE
8
1
62
1
10
-27.005
20
6.505
30
0
11
-27.005
21
26.456
31
0
0
LINE
8
1
62
1
10
-27.016
20
36.505
30
0
11
50
21
36.505
31
0
0
LINE
8
1
62
1
10
50
20
36.505
30
0
11
50.004
21
36.503
31
0
0
LINE
8
1
62
1
10
50.004
20
36.503
30
0
11
50.004
21
36.498
31
0
0
LINE
8
1
62
1
10
50.004
20
36.498
30
0
11
30.005
21
-3.501
31
0
0
LINE
8
1
62
1
10
30.005
20
-3.501
30
0
11
30.005
21
-13.5
31
0
0
LINE
8
1
62
1
10
30.005
20
-13.5
30
0
11
30.004
21
-13.504
31
0
0
LINE
8
1
62
1
10
30.004
20
-13.504
30
0
11
30
21
-13.505
31
0
0
LINE
8
1
62
1
10
30
20
-13.505
30
0
11
27.005
21
-13.505
31
0
0
LINE
8
1
62
1
10
27.005
20
-13.505
30
0
11
27.005
21
-23.495
31
0
0
LINE
8
1
62
1
10
27.005
20
-23.495
30
0
11
30
21
-23.495
31
0
0
LINE
8
1
62
1
10
30
20
-23.495
30
0
11
30.004
21
-23.496
31
0
0
LINE
8
1
62
1
10
30.004
20
-23.496
30
0
11
30.005
21
-23.5
31
0
0
LINE
8
1
62
1
10
30.005
20
-23.5
30
0
11
30.005
21
-33.5
31
0
0
LINE
8
1
62
1
10
30.005
20
-33.5
30
0
11
30.004
21
-33.504
31
0
0
LINE
8
1
62
1
10
30.004
20
-33.504
30
0
11
30
21
-33.505
31
0
0
LINE
8
1
62
1
10
30
20
-33.505
30
0
11
19.986
21
-33.505
31
0
0
LINE
8
1
62
1
10
19.986
20
-33.505
30
0
11
19.986
21
-36.5
31
0
0
LINE
8
1
62
1
10
19.986
20
-36.5
30
0
11
19.985
21
-36.504
31
0
0
LINE
8
1
62
1
10
19.985
20
-36.504
30
0
11
19.981
21
-36.505
31
0
0
LINE
8
1
62
1
10
19.981
20
-36.505
30
0
11
10
21
-36.505
31
0
0
LINE
8
1
62
1
10
10
20
-36.505
30
0
11
9.996
21
-36.504
31
0
0
LINE
8
1
62
1
10
9.996
20
-36.504
30
0
11
9.995
21
-36.5
31
0
0
LINE
8
1
62
1
10
9.995
20
-36.5
30
0
11
9.995
21
-33.505
31
0
0
LINE
8
1
62
1
10
9.995
20
-33.505
30
0
11
-9.995
21
-33.505
31
0
0
LINE
8
1
62
1
10
-9.995
20
-33.505
30
0
11
-9.995
21
-36.5
31
0
0
LINE
8
1
62
1
10
-9.995
20
-36.5
30
0
11
-9.996
21
-36.504
31
0
0
LINE
8
1
62
1
10
-9.996
20
-36.504
30
0
11
-10
21
-36.505
31
0
0
LINE
8
1
62
1
10
-10
20
-36.505
30
0
11
-19.981
21
-36.505
31
0
0
LINE
8
1
62
1
10
-19.981
20
-36.505
30
0
11
-19.985
21
-36.504
31
0
0
LINE
8
1
62
1
10
-19.985
20
-36.504
30
0
11
-19.986
21
-36.5
31
0
0
LINE
8
1
62
1
10
-19.986
20
-36.5
30
0
11
-19.986
21
-33.505
31
0
0
LINE
8
1
62
1
10
-19.986
20
-33.505
30
0
11
-30
21
-33.505
31
0
0
LINE
8
1
62
1
10
-30
20
-33.505
30
0
11
-30.004
21
-33.504
31
0
0
LINE
8
1
62
1
10
-30.004
20
-33.504
30
0
11
-30.005
21
-33.5
31
0
0
LINE
8
1
62
1
10
-30.005
20
-33.5
30
0
11
-30.005
21
-23.5
31
0
0
LINE
8
1
62
1
10
-30.005
20
-23.5
30
0
11
-30.004
21
-23.496
31
0
0
LINE
8
1
62
1
10
-30.004
20
-23.496
30
0
11
-30
21
-23.495
31
0
0
LINE
8
1
62
1
10
-30
20
-23.495
30
0
11
-27.005
21
-23.495
31
0
0
LINE
8
1
62
1
10
-27.005
20
-23.495
30
0
11
-27.005
21
-13.505
31
0
0
LINE
8
1
62
1
10
-27.005
20
-13.505
30
0
11
-30
21
-13.505
31
0
0
LINE
8
1
62
1
10
-30
20
-13.505
30
0
11
-30.004
21
-13.504
31
0
0
LINE
8
1
62
1
10
-30.004
20
-13.504
30
0
11
-30.005
21
-13.5
31
0
0
LINE
8
1
62
1
10
-30.005
20
-13.5
30
0
11
-30.005
21
-3.501
31
0
0
LINE
8
1
62
1
10
-30.005
20
-3.501
30
0
11
-50.004
21
36.498
31
0
0
LINE
8
1
62
1
10
-50.004
20
36.498
30
0
11
-50.004
21
36.503
31
0
0
LINE
8
1
62
1
10
-50.004
20
36.503
30
0
11
-50
21
36.505
31
0
0
LINE
8
1
62
1
10
-50
20
36.505
30
0
11
-27.016
21
36.505
31
0
0
ENDSEC
0
EOF
