999
Generated by Autodesk CAM - http://cam.autodesk.com
0
SECTION
2
HEADER
9
$ACADVER
1
AC1006
9
$ANGBASE
50
0
9
$ANGDIR
70
0
0
ENDSEC
0
SECTION
2
BLOCKS
0
ENDSEC
9
$EXTMIN
10
-30.025
20
-63.505
30
0
9
$EXTMAX
10
30.005
20
36.505
30
19
0
SECTION
2
ENTITIES
0
LINE
8
1
62
1
10
-30
20
-33.505
30
0
11
-30.004
21
-33.504
31
0
0
LINE
8
1
62
1
10
-30.004
20
-33.504
30
0
11
-30.005
21
-33.5
31
0
0
LINE
8
1
62
1
10
-30.005
20
-33.5
30
0
11
-30.005
21
-13.5
31
0
0
LINE
8
1
62
1
10
-30.005
20
-13.5
30
0
11
-30.004
21
-13.496
31
0
0
LINE
8
1
62
1
10
-30.004
20
-13.496
30
0
11
-30
21
-13.495
31
0
0
LINE
8
1
62
1
10
-30
20
-13.495
30
0
11
-27.005
21
-13.495
31
0
0
LINE
8
1
62
1
10
-27.005
20
-13.495
30
0
11
-27.005
21
16.495
31
0
0
LINE
8
1
62
1
10
-27.005
20
16.495
30
0
11
-30
21
16.495
31
0
0
LINE
8
1
62
1
10
-30
20
16.495
30
0
11
-30.004
21
16.496
31
0
0
LINE
8
1
62
1
10
-30.004
20
16.496
30
0
11
-30.005
21
16.5
31
0
0
LINE
8
1
62
1
10
-30.005
20
16.5
30
0
11
-30.005
21
26.5
31
0
0
LINE
8
1
62
1
10
-30.005
20
26.5
30
0
11
-30.004
21
26.504
31
0
0
LINE
8
1
62
1
10
-30.004
20
26.504
30
0
11
-30
21
26.505
31
0
0
LINE
8
1
62
1
10
-30
20
26.505
30
0
11
-27.005
21
26.505
31
0
0
LINE
8
1
62
1
10
-27.005
20
26.505
30
0
11
-27.005
21
36.5
31
0
0
LINE
8
1
62
1
10
-27.005
20
36.5
30
0
11
-27.004
21
36.504
31
0
0
LINE
8
1
62
1
10
-27.004
20
36.504
30
0
11
-27
21
36.505
31
0
0
LINE
8
1
62
1
10
-27
20
36.505
30
0
11
27
21
36.505
31
0
0
LINE
8
1
62
1
10
27
20
36.505
30
0
11
27.004
21
36.504
31
0
0
LINE
8
1
62
1
10
27.004
20
36.504
30
0
11
27.005
21
36.5
31
0
0
LINE
8
1
62
1
10
27.005
20
36.5
30
0
11
27.005
21
26.505
31
0
0
LINE
8
1
62
1
10
27.005
20
26.505
30
0
11
30
21
26.505
31
0
0
LINE
8
1
62
1
10
30
20
26.505
30
0
11
30.004
21
26.504
31
0
0
LINE
8
1
62
1
10
30.004
20
26.504
30
0
11
30.005
21
26.5
31
0
0
LINE
8
1
62
1
10
30.005
20
26.5
30
0
11
30.005
21
16.5
31
0
0
LINE
8
1
62
1
10
30.005
20
16.5
30
0
11
30.004
21
16.496
31
0
0
LINE
8
1
62
1
10
30.004
20
16.496
30
0
11
30
21
16.495
31
0
0
LINE
8
1
62
1
10
30
20
16.495
30
0
11
27.005
21
16.495
31
0
0
LINE
8
1
62
1
10
27.005
20
16.495
30
0
11
27.005
21
-13.495
31
0
0
LINE
8
1
62
1
10
27.005
20
-13.495
30
0
11
30
21
-13.495
31
0
0
LINE
8
1
62
1
10
30
20
-13.495
30
0
11
30.004
21
-13.496
31
0
0
LINE
8
1
62
1
10
30.004
20
-13.496
30
0
11
30.005
21
-13.5
31
0
0
LINE
8
1
62
1
10
30.005
20
-13.5
30
0
11
30.005
21
-33.5
31
0
0
LINE
8
1
62
1
10
30.005
20
-33.5
30
0
11
30.004
21
-33.504
31
0
0
LINE
8
1
62
1
10
30.004
20
-33.504
30
0
11
30
21
-33.505
31
0
0
LINE
8
1
62
1
10
30
20
-33.505
30
0
11
27.005
21
-33.505
31
0
0
LINE
8
1
62
1
10
27.005
20
-33.505
30
0
11
27.005
21
-63.5
31
0
0
LINE
8
1
62
1
10
27.005
20
-63.5
30
0
11
27.004
21
-63.504
31
0
0
LINE
8
1
62
1
10
27.004
20
-63.504
30
0
11
27
21
-63.505
31
0
0
LINE
8
1
62
1
10
27
20
-63.505
30
0
11
10
21
-63.505
31
0
0
LINE
8
1
62
1
10
10
20
-63.505
30
0
11
9.996
21
-63.504
31
0
0
LINE
8
1
62
1
10
9.996
20
-63.504
30
0
11
9.995
21
-63.5
31
0
0
LINE
8
1
62
1
10
9.995
20
-63.5
30
0
11
9.995
21
-60.505
31
0
0
LINE
8
1
62
1
10
9.995
20
-60.505
30
0
11
-9.995
21
-60.505
31
0
0
LINE
8
1
62
1
10
-9.995
20
-60.505
30
0
11
-9.995
21
-63.5
31
0
0
LINE
8
1
62
1
10
-9.995
20
-63.5
30
0
11
-9.996
21
-63.504
31
0
0
LINE
8
1
62
1
10
-9.996
20
-63.504
30
0
11
-10
21
-63.505
31
0
0
LINE
8
1
62
1
10
-10
20
-63.505
30
0
11
-27
21
-63.505
31
0
0
LINE
8
1
62
1
10
-27
20
-63.505
30
0
11
-27.004
21
-63.504
31
0
0
LINE
8
1
62
1
10
-27.004
20
-63.504
30
0
11
-27.005
21
-63.5
31
0
0
LINE
8
1
62
1
10
-27.005
20
-63.5
30
0
11
-27.005
21
-33.505
31
0
0
LINE
8
1
62
1
10
-27.005
20
-33.505
30
0
11
-30
21
-33.505
31
0
0
ENDSEC
0
EOF
