999
Generated by Autodesk CAM - http://cam.autodesk.com
0
SECTION
2
HEADER
9
$ACADVER
1
AC1006
9
$ANGBASE
50
0
9
$ANGDIR
70
0
0
ENDSEC
0
SECTION
2
BLOCKS
0
ENDSEC
9
$EXTMIN
10
-17.005
20
-108.505
30
0
9
$EXTMAX
10
15.005
20
0
30
19
0
SECTION
2
ENTITIES
0
LINE
8
1
62
1
10
-14
20
-105.505
30
0
11
-14.004
21
-105.504
31
0
0
LINE
8
1
62
1
10
-14.004
20
-105.504
30
0
11
-14.005
21
-105.5
31
0
0
LINE
8
1
62
1
10
-14.005
20
-105.5
30
0
11
-14.005
21
-88.505
31
0
0
LINE
8
1
62
1
10
-14.005
20
-88.505
30
0
11
-17
21
-88.505
31
0
0
LINE
8
1
62
1
10
-17
20
-88.505
30
0
11
-17.004
21
-88.504
31
0
0
LINE
8
1
62
1
10
-17.004
20
-88.504
30
0
11
-17.005
21
-88.5
31
0
0
LINE
8
1
62
1
10
-17.005
20
-88.5
30
0
11
-17.005
21
-78.5
31
0
0
LINE
8
1
62
1
10
-17.005
20
-78.5
30
0
11
-17.004
21
-78.496
31
0
0
LINE
8
1
62
1
10
-17.004
20
-78.496
30
0
11
-17
21
-78.495
31
0
0
LINE
8
1
62
1
10
-17
20
-78.495
30
0
11
-14.005
21
-78.495
31
0
0
LINE
8
1
62
1
10
-14.005
20
-78.495
30
0
11
-14.005
21
-66.5
31
0
0
LINE
8
1
62
1
10
-14.005
20
-66.5
30
0
11
-14.004
21
-66.496
31
0
0
LINE
8
1
62
1
10
-14.004
20
-66.496
30
0
11
-14
21
-66.495
31
0
0
LINE
8
1
62
1
10
-14
20
-66.495
30
0
11
-7.005
21
-66.495
31
0
0
LINE
8
1
62
1
10
-7.005
20
-66.495
30
0
11
-7.005
21
-63.5
31
0
0
LINE
8
1
62
1
10
-7.005
20
-63.5
30
0
11
-7.004
21
-63.496
31
0
0
LINE
8
1
62
1
10
-7.004
20
-63.496
30
0
11
-7
21
-63.495
31
0
0
LINE
8
1
62
1
10
-7
20
-63.495
30
0
11
5
21
-63.495
31
0
0
LINE
8
1
62
1
10
5
20
-63.495
30
0
11
5.004
21
-63.496
31
0
0
LINE
8
1
62
1
10
5.004
20
-63.496
30
0
11
5.005
21
-63.5
31
0
0
LINE
8
1
62
1
10
5.005
20
-63.5
30
0
11
5.005
21
-66.495
31
0
0
LINE
8
1
62
1
10
5.005
20
-66.495
30
0
11
12
21
-66.495
31
0
0
LINE
8
1
62
1
10
12
20
-66.495
30
0
11
12.004
21
-66.496
31
0
0
LINE
8
1
62
1
10
12.004
20
-66.496
30
0
11
12.005
21
-66.5
31
0
0
LINE
8
1
62
1
10
12.005
20
-66.5
30
0
11
12.005
21
-78.495
31
0
0
LINE
8
1
62
1
10
12.005
20
-78.495
30
0
11
15
21
-78.495
31
0
0
LINE
8
1
62
1
10
15
20
-78.495
30
0
11
15.004
21
-78.496
31
0
0
LINE
8
1
62
1
10
15.004
20
-78.496
30
0
11
15.005
21
-78.5
31
0
0
LINE
8
1
62
1
10
15.005
20
-78.5
30
0
11
15.005
21
-88.5
31
0
0
LINE
8
1
62
1
10
15.005
20
-88.5
30
0
11
15.004
21
-88.504
31
0
0
LINE
8
1
62
1
10
15.004
20
-88.504
30
0
11
15
21
-88.505
31
0
0
LINE
8
1
62
1
10
15
20
-88.505
30
0
11
12.005
21
-88.505
31
0
0
LINE
8
1
62
1
10
12.005
20
-88.505
30
0
11
12.005
21
-105.5
31
0
0
LINE
8
1
62
1
10
12.005
20
-105.5
30
0
11
12.004
21
-105.504
31
0
0
LINE
8
1
62
1
10
12.004
20
-105.504
30
0
11
12
21
-105.505
31
0
0
LINE
8
1
62
1
10
12
20
-105.505
30
0
11
5.005
21
-105.505
31
0
0
LINE
8
1
62
1
10
5.005
20
-105.505
30
0
11
5.005
21
-108.5
31
0
0
LINE
8
1
62
1
10
5.005
20
-108.5
30
0
11
5.004
21
-108.504
31
0
0
LINE
8
1
62
1
10
5.004
20
-108.504
30
0
11
5
21
-108.505
31
0
0
LINE
8
1
62
1
10
5
20
-108.505
30
0
11
-7
21
-108.505
31
0
0
LINE
8
1
62
1
10
-7
20
-108.505
30
0
11
-7.004
21
-108.504
31
0
0
LINE
8
1
62
1
10
-7.004
20
-108.504
30
0
11
-7.005
21
-108.5
31
0
0
LINE
8
1
62
1
10
-7.005
20
-108.5
30
0
11
-7.005
21
-105.505
31
0
0
LINE
8
1
62
1
10
-7.005
20
-105.505
30
0
11
-14
21
-105.505
31
0
0
ENDSEC
0
EOF
