999
Generated by Autodesk CAM - http://cam.autodesk.com
0
SECTION
2
HEADER
9
$ACADVER
1
AC1006
9
$ANGBASE
50
0
9
$ANGDIR
70
0
0
ENDSEC
0
SECTION
2
BLOCKS
0
ENDSEC
9
$EXTMIN
10
-35.005
20
-95.005
30
0
9
$EXTMAX
10
35.005
20
0
30
15
0
SECTION
2
ENTITIES
0
LINE
8
1
62
1
10
-32.005
20
-65.044
30
0
11
-32.005
21
-65.005
31
0
0
LINE
8
1
62
1
10
-32.005
20
-65.005
30
0
11
-35
21
-65.005
31
0
0
LINE
8
1
62
1
10
-35
20
-65.005
30
0
11
-35.004
21
-65.004
31
0
0
LINE
8
1
62
1
10
-35.004
20
-65.004
30
0
11
-35.005
21
-65
31
0
0
LINE
8
1
62
1
10
-35.005
20
-65
30
0
11
-35.005
21
-53
31
0
0
LINE
8
1
62
1
10
-35.005
20
-53
30
0
11
-35.004
21
-52.996
31
0
0
LINE
8
1
62
1
10
-35.004
20
-52.996
30
0
11
-35
21
-52.995
31
0
0
LINE
8
1
62
1
10
-35
20
-52.995
30
0
11
-25.005
21
-52.995
31
0
0
LINE
8
1
62
1
10
-25.005
20
-52.995
30
0
11
-25.005
21
-50
31
0
0
LINE
8
1
62
1
10
-25.005
20
-50
30
0
11
-25.004
21
-49.996
31
0
0
LINE
8
1
62
1
10
-25.004
20
-49.996
30
0
11
-25
21
-49.995
31
0
0
LINE
8
1
62
1
10
-25
20
-49.995
30
0
11
-5
21
-49.995
31
0
0
LINE
8
1
62
1
10
-5
20
-49.995
30
0
11
-4.996
21
-49.996
31
0
0
LINE
8
1
62
1
10
-4.996
20
-49.996
30
0
11
-4.995
21
-50
31
0
0
LINE
8
1
62
1
10
-4.995
20
-50
30
0
11
-4.995
21
-52.995
31
0
0
LINE
8
1
62
1
10
-4.995
20
-52.995
30
0
11
4.995
21
-52.995
31
0
0
LINE
8
1
62
1
10
4.995
20
-52.995
30
0
11
4.995
21
-50
31
0
0
LINE
8
1
62
1
10
4.995
20
-50
30
0
11
4.996
21
-49.996
31
0
0
LINE
8
1
62
1
10
4.996
20
-49.996
30
0
11
5
21
-49.995
31
0
0
LINE
8
1
62
1
10
5
20
-49.995
30
0
11
25
21
-49.995
31
0
0
LINE
8
1
62
1
10
25
20
-49.995
30
0
11
25.004
21
-49.996
31
0
0
LINE
8
1
62
1
10
25.004
20
-49.996
30
0
11
25.005
21
-50
31
0
0
LINE
8
1
62
1
10
25.005
20
-50
30
0
11
25.005
21
-52.995
31
0
0
LINE
8
1
62
1
10
25.005
20
-52.995
30
0
11
35
21
-52.995
31
0
0
LINE
8
1
62
1
10
35
20
-52.995
30
0
11
35.004
21
-52.996
31
0
0
LINE
8
1
62
1
10
35.004
20
-52.996
30
0
11
35.005
21
-53
31
0
0
LINE
8
1
62
1
10
35.005
20
-53
30
0
11
35.005
21
-65
31
0
0
LINE
8
1
62
1
10
35.005
20
-65
30
0
11
35.004
21
-65.004
31
0
0
LINE
8
1
62
1
10
35.004
20
-65.004
30
0
11
35
21
-65.005
31
0
0
LINE
8
1
62
1
10
35
20
-65.005
30
0
11
32.005
21
-65.005
31
0
0
LINE
8
1
62
1
10
32.005
20
-65.005
30
0
11
32.005
21
-74.995
31
0
0
LINE
8
1
62
1
10
32.005
20
-74.995
30
0
11
35
21
-74.995
31
0
0
LINE
8
1
62
1
10
35
20
-74.995
30
0
11
35.004
21
-74.996
31
0
0
LINE
8
1
62
1
10
35.004
20
-74.996
30
0
11
35.005
21
-75
31
0
0
LINE
8
1
62
1
10
35.005
20
-75
30
0
11
35.005
21
-92
31
0
0
LINE
8
1
62
1
10
35.005
20
-92
30
0
11
35.004
21
-92.004
31
0
0
LINE
8
1
62
1
10
35.004
20
-92.004
30
0
11
35
21
-92.005
31
0
0
LINE
8
1
62
1
10
35
20
-92.005
30
0
11
25.005
21
-92.005
31
0
0
LINE
8
1
62
1
10
25.005
20
-92.005
30
0
11
25.005
21
-95
31
0
0
LINE
8
1
62
1
10
25.005
20
-95
30
0
11
25.004
21
-95.004
31
0
0
LINE
8
1
62
1
10
25.004
20
-95.004
30
0
11
25
21
-95.005
31
0
0
LINE
8
1
62
1
10
25
20
-95.005
30
0
11
5
21
-95.005
31
0
0
LINE
8
1
62
1
10
5
20
-95.005
30
0
11
4.996
21
-95.004
31
0
0
LINE
8
1
62
1
10
4.996
20
-95.004
30
0
11
4.995
21
-95
31
0
0
LINE
8
1
62
1
10
4.995
20
-95
30
0
11
4.995
21
-92.005
31
0
0
LINE
8
1
62
1
10
4.995
20
-92.005
30
0
11
-4.995
21
-92.005
31
0
0
LINE
8
1
62
1
10
-4.995
20
-92.005
30
0
11
-4.995
21
-95
31
0
0
LINE
8
1
62
1
10
-4.995
20
-95
30
0
11
-4.996
21
-95.004
31
0
0
LINE
8
1
62
1
10
-4.996
20
-95.004
30
0
11
-5
21
-95.005
31
0
0
LINE
8
1
62
1
10
-5
20
-95.005
30
0
11
-25
21
-95.005
31
0
0
LINE
8
1
62
1
10
-25
20
-95.005
30
0
11
-25.004
21
-95.004
31
0
0
LINE
8
1
62
1
10
-25.004
20
-95.004
30
0
11
-25.005
21
-95
31
0
0
LINE
8
1
62
1
10
-25.005
20
-95
30
0
11
-25.005
21
-92.005
31
0
0
LINE
8
1
62
1
10
-25.005
20
-92.005
30
0
11
-35
21
-92.005
31
0
0
LINE
8
1
62
1
10
-35
20
-92.005
30
0
11
-35.004
21
-92.004
31
0
0
LINE
8
1
62
1
10
-35.004
20
-92.004
30
0
11
-35.005
21
-92
31
0
0
LINE
8
1
62
1
10
-35.005
20
-92
30
0
11
-35.005
21
-75
31
0
0
LINE
8
1
62
1
10
-35.005
20
-75
30
0
11
-35.004
21
-74.996
31
0
0
LINE
8
1
62
1
10
-35.004
20
-74.996
30
0
11
-35
21
-74.995
31
0
0
LINE
8
1
62
1
10
-35
20
-74.995
30
0
11
-32.005
21
-74.995
31
0
0
LINE
8
1
62
1
10
-32.005
20
-74.995
30
0
11
-32.005
21
-65.044
31
0
0
ENDSEC
0
EOF
