999
Generated by Autodesk CAM - http://cam.autodesk.com
0
SECTION
2
HEADER
9
$ACADVER
1
AC1006
9
$ANGBASE
50
0
9
$ANGDIR
70
0
0
ENDSEC
0
SECTION
2
BLOCKS
0
ENDSEC
9
$EXTMIN
10
-35.005
20
-17.005
30
0
9
$EXTMAX
10
35.005
20
15.005
30
15
0
SECTION
2
ENTITIES
0
ARC
8
1
62
1
10
0
20
0
30
0
40
9.995
50
-90
51
90
0
ARC
8
1
62
1
10
0
20
0
30
0
40
9.995
50
90
51
-90
0
LINE
8
1
62
1
10
-5.005
20
-14.045
30
0
11
-5.005
21
-14.005
31
0
0
LINE
8
1
62
1
10
-5.005
20
-14.005
30
0
11
-24.995
21
-14.005
31
0
0
LINE
8
1
62
1
10
-24.995
20
-14.005
30
0
11
-24.995
21
-17
31
0
0
LINE
8
1
62
1
10
-24.995
20
-17
30
0
11
-24.996
21
-17.004
31
0
0
LINE
8
1
62
1
10
-24.996
20
-17.004
30
0
11
-25
21
-17.005
31
0
0
LINE
8
1
62
1
10
-25
20
-17.005
30
0
11
-35
21
-17.005
31
0
0
LINE
8
1
62
1
10
-35
20
-17.005
30
0
11
-35.004
21
-17.004
31
0
0
LINE
8
1
62
1
10
-35.004
20
-17.004
30
0
11
-35.005
21
-17
31
0
0
LINE
8
1
62
1
10
-35.005
20
-17
30
0
11
-35.005
21
-7
31
0
0
LINE
8
1
62
1
10
-35.005
20
-7
30
0
11
-35.004
21
-6.996
31
0
0
LINE
8
1
62
1
10
-35.004
20
-6.996
30
0
11
-35
21
-6.995
31
0
0
LINE
8
1
62
1
10
-35
20
-6.995
30
0
11
-32.005
21
-6.995
31
0
0
LINE
8
1
62
1
10
-32.005
20
-6.995
30
0
11
-32.005
21
4.995
31
0
0
LINE
8
1
62
1
10
-32.005
20
4.995
30
0
11
-35
21
4.995
31
0
0
LINE
8
1
62
1
10
-35
20
4.995
30
0
11
-35.004
21
4.996
31
0
0
LINE
8
1
62
1
10
-35.004
20
4.996
30
0
11
-35.005
21
5
31
0
0
LINE
8
1
62
1
10
-35.005
20
5
30
0
11
-35.005
21
15
31
0
0
LINE
8
1
62
1
10
-35.005
20
15
30
0
11
-35.004
21
15.004
31
0
0
LINE
8
1
62
1
10
-35.004
20
15.004
30
0
11
-35
21
15.005
31
0
0
LINE
8
1
62
1
10
-35
20
15.005
30
0
11
-25
21
15.005
31
0
0
LINE
8
1
62
1
10
-25
20
15.005
30
0
11
-24.996
21
15.004
31
0
0
LINE
8
1
62
1
10
-24.996
20
15.004
30
0
11
-24.995
21
15
31
0
0
LINE
8
1
62
1
10
-24.995
20
15
30
0
11
-24.995
21
12.005
31
0
0
LINE
8
1
62
1
10
-24.995
20
12.005
30
0
11
-5.005
21
12.005
31
0
0
LINE
8
1
62
1
10
-5.005
20
12.005
30
0
11
-5.005
21
15
31
0
0
LINE
8
1
62
1
10
-5.005
20
15
30
0
11
-5.004
21
15.004
31
0
0
LINE
8
1
62
1
10
-5.004
20
15.004
30
0
11
-5
21
15.005
31
0
0
LINE
8
1
62
1
10
-5
20
15.005
30
0
11
5
21
15.005
31
0
0
LINE
8
1
62
1
10
5
20
15.005
30
0
11
5.004
21
15.004
31
0
0
LINE
8
1
62
1
10
5.004
20
15.004
30
0
11
5.005
21
15
31
0
0
LINE
8
1
62
1
10
5.005
20
15
30
0
11
5.005
21
12.005
31
0
0
LINE
8
1
62
1
10
5.005
20
12.005
30
0
11
24.995
21
12.005
31
0
0
LINE
8
1
62
1
10
24.995
20
12.005
30
0
11
24.995
21
15
31
0
0
LINE
8
1
62
1
10
24.995
20
15
30
0
11
24.996
21
15.004
31
0
0
LINE
8
1
62
1
10
24.996
20
15.004
30
0
11
25
21
15.005
31
0
0
LINE
8
1
62
1
10
25
20
15.005
30
0
11
35
21
15.005
31
0
0
LINE
8
1
62
1
10
35
20
15.005
30
0
11
35.004
21
15.004
31
0
0
LINE
8
1
62
1
10
35.004
20
15.004
30
0
11
35.005
21
15
31
0
0
LINE
8
1
62
1
10
35.005
20
15
30
0
11
35.005
21
5
31
0
0
LINE
8
1
62
1
10
35.005
20
5
30
0
11
35.004
21
4.996
31
0
0
LINE
8
1
62
1
10
35.004
20
4.996
30
0
11
35
21
4.995
31
0
0
LINE
8
1
62
1
10
35
20
4.995
30
0
11
32.005
21
4.995
31
0
0
LINE
8
1
62
1
10
32.005
20
4.995
30
0
11
32.005
21
-6.995
31
0
0
LINE
8
1
62
1
10
32.005
20
-6.995
30
0
11
35
21
-6.995
31
0
0
LINE
8
1
62
1
10
35
20
-6.995
30
0
11
35.004
21
-6.996
31
0
0
LINE
8
1
62
1
10
35.004
20
-6.996
30
0
11
35.005
21
-7
31
0
0
LINE
8
1
62
1
10
35.005
20
-7
30
0
11
35.005
21
-17
31
0
0
LINE
8
1
62
1
10
35.005
20
-17
30
0
11
35.004
21
-17.004
31
0
0
LINE
8
1
62
1
10
35.004
20
-17.004
30
0
11
35
21
-17.005
31
0
0
LINE
8
1
62
1
10
35
20
-17.005
30
0
11
25
21
-17.005
31
0
0
LINE
8
1
62
1
10
25
20
-17.005
30
0
11
24.996
21
-17.004
31
0
0
LINE
8
1
62
1
10
24.996
20
-17.004
30
0
11
24.995
21
-17
31
0
0
LINE
8
1
62
1
10
24.995
20
-17
30
0
11
24.995
21
-14.005
31
0
0
LINE
8
1
62
1
10
24.995
20
-14.005
30
0
11
5.005
21
-14.005
31
0
0
LINE
8
1
62
1
10
5.005
20
-14.005
30
0
11
5.005
21
-17
31
0
0
LINE
8
1
62
1
10
5.005
20
-17
30
0
11
5.004
21
-17.004
31
0
0
LINE
8
1
62
1
10
5.004
20
-17.004
30
0
11
5
21
-17.005
31
0
0
LINE
8
1
62
1
10
5
20
-17.005
30
0
11
-5
21
-17.005
31
0
0
LINE
8
1
62
1
10
-5
20
-17.005
30
0
11
-5.004
21
-17.004
31
0
0
LINE
8
1
62
1
10
-5.004
20
-17.004
30
0
11
-5.005
21
-17
31
0
0
LINE
8
1
62
1
10
-5.005
20
-17
30
0
11
-5.005
21
-14.045
31
0
0
ENDSEC
0
EOF
