999
Generated by Autodesk CAM - http://cam.autodesk.com
0
SECTION
2
HEADER
9
$ACADVER
1
AC1006
9
$ANGBASE
50
0
9
$ANGDIR
70
0
0
ENDSEC
0
SECTION
2
BLOCKS
0
ENDSEC
9
$EXTMIN
10
-110.005
20
-30.005
30
0
9
$EXTMAX
10
110.005
20
30.005
30
15
0
SECTION
2
ENTITIES
0
ARC
8
1
62
1
10
0
20
0
30
0
40
9.995
50
-90
51
90
0
ARC
8
1
62
1
10
0
20
0
30
0
40
9.995
50
90
51
-90
0
LINE
8
1
62
1
10
10.044
20
-27.005
30
0
11
10.005
21
-27.005
31
0
0
LINE
8
1
62
1
10
10.005
20
-27.005
30
0
11
10.005
21
-30
31
0
0
LINE
8
1
62
1
10
10.005
20
-30
30
0
11
10.004
21
-30.004
31
0
0
LINE
8
1
62
1
10
10.004
20
-30.004
30
0
11
10
21
-30.005
31
0
0
LINE
8
1
62
1
10
10
20
-30.005
30
0
11
-10
21
-30.005
31
0
0
LINE
8
1
62
1
10
-10
20
-30.005
30
0
11
-10.004
21
-30.004
31
0
0
LINE
8
1
62
1
10
-10.004
20
-30.004
30
0
11
-10.005
21
-30
31
0
0
LINE
8
1
62
1
10
-10.005
20
-30
30
0
11
-10.005
21
-27.005
31
0
0
LINE
8
1
62
1
10
-10.005
20
-27.005
30
0
11
-49.995
21
-27.005
31
0
0
LINE
8
1
62
1
10
-49.995
20
-27.005
30
0
11
-49.995
21
-30
31
0
0
LINE
8
1
62
1
10
-49.995
20
-30
30
0
11
-49.996
21
-30.004
31
0
0
LINE
8
1
62
1
10
-49.996
20
-30.004
30
0
11
-50
21
-30.005
31
0
0
LINE
8
1
62
1
10
-50
20
-30.005
30
0
11
-70
21
-30.005
31
0
0
LINE
8
1
62
1
10
-70
20
-30.005
30
0
11
-70.004
21
-30.004
31
0
0
LINE
8
1
62
1
10
-70.004
20
-30.004
30
0
11
-70.005
21
-30
31
0
0
LINE
8
1
62
1
10
-70.005
20
-30
30
0
11
-70.005
21
-27.005
31
0
0
LINE
8
1
62
1
10
-70.005
20
-27.005
30
0
11
-107
21
-27.005
31
0
0
LINE
8
1
62
1
10
-107
20
-27.005
30
0
11
-107.004
21
-27.004
31
0
0
LINE
8
1
62
1
10
-107.004
20
-27.004
30
0
11
-107.005
21
-27
31
0
0
LINE
8
1
62
1
10
-107.005
20
-27
30
0
11
-107.005
21
-10.005
31
0
0
LINE
8
1
62
1
10
-107.005
20
-10.005
30
0
11
-110
21
-10.005
31
0
0
LINE
8
1
62
1
10
-110
20
-10.005
30
0
11
-110.004
21
-10.004
31
0
0
LINE
8
1
62
1
10
-110.004
20
-10.004
30
0
11
-110.005
21
-10
31
0
0
LINE
8
1
62
1
10
-110.005
20
-10
30
0
11
-110.005
21
10
31
0
0
LINE
8
1
62
1
10
-110.005
20
10
30
0
11
-110.004
21
10.004
31
0
0
LINE
8
1
62
1
10
-110.004
20
10.004
30
0
11
-110
21
10.005
31
0
0
LINE
8
1
62
1
10
-110
20
10.005
30
0
11
-107.005
21
10.005
31
0
0
LINE
8
1
62
1
10
-107.005
20
10.005
30
0
11
-107.005
21
27
31
0
0
LINE
8
1
62
1
10
-107.005
20
27
30
0
11
-107.004
21
27.004
31
0
0
LINE
8
1
62
1
10
-107.004
20
27.004
30
0
11
-107
21
27.005
31
0
0
LINE
8
1
62
1
10
-107
20
27.005
30
0
11
-70.005
21
27.005
31
0
0
LINE
8
1
62
1
10
-70.005
20
27.005
30
0
11
-70.005
21
30
31
0
0
LINE
8
1
62
1
10
-70.005
20
30
30
0
11
-70.004
21
30.004
31
0
0
LINE
8
1
62
1
10
-70.004
20
30.004
30
0
11
-70
21
30.005
31
0
0
LINE
8
1
62
1
10
-70
20
30.005
30
0
11
-50
21
30.005
31
0
0
LINE
8
1
62
1
10
-50
20
30.005
30
0
11
-49.996
21
30.004
31
0
0
LINE
8
1
62
1
10
-49.996
20
30.004
30
0
11
-49.995
21
30
31
0
0
LINE
8
1
62
1
10
-49.995
20
30
30
0
11
-49.995
21
27.005
31
0
0
LINE
8
1
62
1
10
-49.995
20
27.005
30
0
11
-10.005
21
27.005
31
0
0
LINE
8
1
62
1
10
-10.005
20
27.005
30
0
11
-10.005
21
30
31
0
0
LINE
8
1
62
1
10
-10.005
20
30
30
0
11
-10.004
21
30.004
31
0
0
LINE
8
1
62
1
10
-10.004
20
30.004
30
0
11
-10
21
30.005
31
0
0
LINE
8
1
62
1
10
-10
20
30.005
30
0
11
10
21
30.005
31
0
0
LINE
8
1
62
1
10
10
20
30.005
30
0
11
10.004
21
30.004
31
0
0
LINE
8
1
62
1
10
10.004
20
30.004
30
0
11
10.005
21
30
31
0
0
LINE
8
1
62
1
10
10.005
20
30
30
0
11
10.005
21
27.005
31
0
0
LINE
8
1
62
1
10
10.005
20
27.005
30
0
11
49.995
21
27.005
31
0
0
LINE
8
1
62
1
10
49.995
20
27.005
30
0
11
49.995
21
30
31
0
0
LINE
8
1
62
1
10
49.995
20
30
30
0
11
49.996
21
30.004
31
0
0
LINE
8
1
62
1
10
49.996
20
30.004
30
0
11
50
21
30.005
31
0
0
LINE
8
1
62
1
10
50
20
30.005
30
0
11
70
21
30.005
31
0
0
LINE
8
1
62
1
10
70
20
30.005
30
0
11
70.004
21
30.004
31
0
0
LINE
8
1
62
1
10
70.004
20
30.004
30
0
11
70.005
21
30
31
0
0
LINE
8
1
62
1
10
70.005
20
30
30
0
11
70.005
21
27.005
31
0
0
LINE
8
1
62
1
10
70.005
20
27.005
30
0
11
107
21
27.005
31
0
0
LINE
8
1
62
1
10
107
20
27.005
30
0
11
107.004
21
27.004
31
0
0
LINE
8
1
62
1
10
107.004
20
27.004
30
0
11
107.005
21
27
31
0
0
LINE
8
1
62
1
10
107.005
20
27
30
0
11
107.005
21
10.005
31
0
0
LINE
8
1
62
1
10
107.005
20
10.005
30
0
11
110
21
10.005
31
0
0
LINE
8
1
62
1
10
110
20
10.005
30
0
11
110.004
21
10.004
31
0
0
LINE
8
1
62
1
10
110.004
20
10.004
30
0
11
110.005
21
10
31
0
0
LINE
8
1
62
1
10
110.005
20
10
30
0
11
110.005
21
-10
31
0
0
LINE
8
1
62
1
10
110.005
20
-10
30
0
11
110.004
21
-10.004
31
0
0
LINE
8
1
62
1
10
110.004
20
-10.004
30
0
11
110
21
-10.005
31
0
0
LINE
8
1
62
1
10
110
20
-10.005
30
0
11
107.005
21
-10.005
31
0
0
LINE
8
1
62
1
10
107.005
20
-10.005
30
0
11
107.005
21
-27
31
0
0
LINE
8
1
62
1
10
107.005
20
-27
30
0
11
107.004
21
-27.004
31
0
0
LINE
8
1
62
1
10
107.004
20
-27.004
30
0
11
107
21
-27.005
31
0
0
LINE
8
1
62
1
10
107
20
-27.005
30
0
11
70.005
21
-27.005
31
0
0
LINE
8
1
62
1
10
70.005
20
-27.005
30
0
11
70.005
21
-30
31
0
0
LINE
8
1
62
1
10
70.005
20
-30
30
0
11
70.004
21
-30.004
31
0
0
LINE
8
1
62
1
10
70.004
20
-30.004
30
0
11
70
21
-30.005
31
0
0
LINE
8
1
62
1
10
70
20
-30.005
30
0
11
50
21
-30.005
31
0
0
LINE
8
1
62
1
10
50
20
-30.005
30
0
11
49.996
21
-30.004
31
0
0
LINE
8
1
62
1
10
49.996
20
-30.004
30
0
11
49.995
21
-30
31
0
0
LINE
8
1
62
1
10
49.995
20
-30
30
0
11
49.995
21
-27.005
31
0
0
LINE
8
1
62
1
10
49.995
20
-27.005
30
0
11
10.044
21
-27.005
31
0
0
ENDSEC
0
EOF
